<mxfile host="app.diagrams.net" agent="Mozilla/5.0 (Windows NT 10.0; Win64; x64) AppleWebKit/537.36 (KHTML, like Gecko) Chrome/137.0.0.0 Safari/537.36" version="27.1.4">
  <diagram name="Page-1" id="DYus6r99QH-YhqP8SPfU">
    <mxGraphModel dx="1314" dy="670" grid="1" gridSize="10" guides="1" tooltips="1" connect="1" arrows="1" fold="1" page="1" pageScale="1" pageWidth="827" pageHeight="1169" math="0" shadow="0">
      <root>
        <mxCell id="0" />
        <mxCell id="1" parent="0" />
        <mxCell id="RvFatmFrUb0J1HVwR3kz-6" value="FLASK" style="rounded=0;whiteSpace=wrap;html=1;align=left;" vertex="1" parent="1">
          <mxGeometry x="51" y="330" width="509" height="100" as="geometry" />
        </mxCell>
        <mxCell id="RvFatmFrUb0J1HVwR3kz-7" style="edgeStyle=orthogonalEdgeStyle;rounded=0;orthogonalLoop=1;jettySize=auto;html=1;exitX=0.5;exitY=1;exitDx=0;exitDy=0;" edge="1" parent="1" source="RvFatmFrUb0J1HVwR3kz-2" target="RvFatmFrUb0J1HVwR3kz-4">
          <mxGeometry relative="1" as="geometry" />
        </mxCell>
        <mxCell id="RvFatmFrUb0J1HVwR3kz-2" value="CSV&lt;div&gt;prix station essence&lt;/div&gt;" style="rounded=0;whiteSpace=wrap;html=1;" vertex="1" parent="1">
          <mxGeometry x="126" y="240" width="120" height="60" as="geometry" />
        </mxCell>
        <mxCell id="RvFatmFrUb0J1HVwR3kz-8" style="edgeStyle=orthogonalEdgeStyle;rounded=0;orthogonalLoop=1;jettySize=auto;html=1;exitX=0.5;exitY=1;exitDx=0;exitDy=0;" edge="1" parent="1" source="RvFatmFrUb0J1HVwR3kz-3" target="RvFatmFrUb0J1HVwR3kz-5">
          <mxGeometry relative="1" as="geometry" />
        </mxCell>
        <mxCell id="RvFatmFrUb0J1HVwR3kz-3" value="Librairie cours de bourse BRENT" style="rounded=0;whiteSpace=wrap;html=1;" vertex="1" parent="1">
          <mxGeometry x="280" y="240" width="120" height="60" as="geometry" />
        </mxCell>
        <mxCell id="RvFatmFrUb0J1HVwR3kz-4" value="ETL&lt;br&gt;(scheduler 1J)" style="rounded=0;whiteSpace=wrap;html=1;" vertex="1" parent="1">
          <mxGeometry x="126" y="350" width="120" height="60" as="geometry" />
        </mxCell>
        <mxCell id="RvFatmFrUb0J1HVwR3kz-5" value="ETL&lt;br&gt;(sheduler 1J)" style="rounded=0;whiteSpace=wrap;html=1;" vertex="1" parent="1">
          <mxGeometry x="280" y="350" width="120" height="60" as="geometry" />
        </mxCell>
        <mxCell id="RvFatmFrUb0J1HVwR3kz-23" style="edgeStyle=orthogonalEdgeStyle;rounded=0;orthogonalLoop=1;jettySize=auto;html=1;exitX=1;exitY=0.5;exitDx=0;exitDy=0;exitPerimeter=0;entryX=0.5;entryY=1;entryDx=0;entryDy=0;" edge="1" parent="1" source="RvFatmFrUb0J1HVwR3kz-9" target="RvFatmFrUb0J1HVwR3kz-19">
          <mxGeometry relative="1" as="geometry" />
        </mxCell>
        <mxCell id="RvFatmFrUb0J1HVwR3kz-9" value="MongoDB&lt;br&gt;Cloud" style="shape=cylinder3;whiteSpace=wrap;html=1;boundedLbl=1;backgroundOutline=1;size=15;" vertex="1" parent="1">
          <mxGeometry x="246" y="505" width="60" height="80" as="geometry" />
        </mxCell>
        <mxCell id="RvFatmFrUb0J1HVwR3kz-11" value="Outil de visualisation&lt;br&gt;(outil ?)" style="rounded=0;whiteSpace=wrap;html=1;" vertex="1" parent="1">
          <mxGeometry x="216" y="640" width="120" height="60" as="geometry" />
        </mxCell>
        <mxCell id="RvFatmFrUb0J1HVwR3kz-16" style="edgeStyle=orthogonalEdgeStyle;rounded=0;orthogonalLoop=1;jettySize=auto;html=1;exitX=0.25;exitY=0;exitDx=0;exitDy=0;entryX=0.145;entryY=1;entryDx=0;entryDy=-4.35;entryPerimeter=0;" edge="1" parent="1" source="RvFatmFrUb0J1HVwR3kz-11" target="RvFatmFrUb0J1HVwR3kz-9">
          <mxGeometry relative="1" as="geometry" />
        </mxCell>
        <mxCell id="RvFatmFrUb0J1HVwR3kz-17" style="edgeStyle=orthogonalEdgeStyle;rounded=0;orthogonalLoop=1;jettySize=auto;html=1;exitX=0.5;exitY=1;exitDx=0;exitDy=0;exitPerimeter=0;entryX=0.583;entryY=0;entryDx=0;entryDy=0;entryPerimeter=0;" edge="1" parent="1" source="RvFatmFrUb0J1HVwR3kz-9" target="RvFatmFrUb0J1HVwR3kz-11">
          <mxGeometry relative="1" as="geometry" />
        </mxCell>
        <mxCell id="RvFatmFrUb0J1HVwR3kz-19" value="Sauvegarde MongoDB&lt;br&gt;(scheduler 7J)" style="rounded=0;whiteSpace=wrap;html=1;" vertex="1" parent="1">
          <mxGeometry x="420" y="350" width="120" height="60" as="geometry" />
        </mxCell>
        <mxCell id="RvFatmFrUb0J1HVwR3kz-20" style="edgeStyle=orthogonalEdgeStyle;rounded=0;orthogonalLoop=1;jettySize=auto;html=1;exitX=0.25;exitY=1;exitDx=0;exitDy=0;entryX=0.145;entryY=0;entryDx=0;entryDy=4.35;entryPerimeter=0;" edge="1" parent="1" source="RvFatmFrUb0J1HVwR3kz-4" target="RvFatmFrUb0J1HVwR3kz-9">
          <mxGeometry relative="1" as="geometry" />
        </mxCell>
        <mxCell id="RvFatmFrUb0J1HVwR3kz-21" style="edgeStyle=orthogonalEdgeStyle;rounded=0;orthogonalLoop=1;jettySize=auto;html=1;exitX=0.25;exitY=1;exitDx=0;exitDy=0;entryX=0.5;entryY=0;entryDx=0;entryDy=0;entryPerimeter=0;" edge="1" parent="1" source="RvFatmFrUb0J1HVwR3kz-5" target="RvFatmFrUb0J1HVwR3kz-9">
          <mxGeometry relative="1" as="geometry" />
        </mxCell>
        <mxCell id="RvFatmFrUb0J1HVwR3kz-22" style="edgeStyle=orthogonalEdgeStyle;rounded=0;orthogonalLoop=1;jettySize=auto;html=1;exitX=0.25;exitY=1;exitDx=0;exitDy=0;entryX=1.002;entryY=0.252;entryDx=0;entryDy=0;entryPerimeter=0;" edge="1" parent="1" source="RvFatmFrUb0J1HVwR3kz-19" target="RvFatmFrUb0J1HVwR3kz-9">
          <mxGeometry relative="1" as="geometry" />
        </mxCell>
        <mxCell id="RvFatmFrUb0J1HVwR3kz-24" value="Service de&lt;br&gt;&amp;nbsp;stockage S3" style="ellipse;shape=cloud;whiteSpace=wrap;html=1;" vertex="1" parent="1">
          <mxGeometry x="590" y="340" width="120" height="80" as="geometry" />
        </mxCell>
        <mxCell id="RvFatmFrUb0J1HVwR3kz-25" style="edgeStyle=orthogonalEdgeStyle;rounded=0;orthogonalLoop=1;jettySize=auto;html=1;exitX=1;exitY=0.5;exitDx=0;exitDy=0;entryX=0.083;entryY=0.504;entryDx=0;entryDy=0;entryPerimeter=0;" edge="1" parent="1" source="RvFatmFrUb0J1HVwR3kz-19" target="RvFatmFrUb0J1HVwR3kz-24">
          <mxGeometry relative="1" as="geometry" />
        </mxCell>
      </root>
    </mxGraphModel>
  </diagram>
</mxfile>
